<?xml version="1.0" encoding="UTF-8"?>
<svg xmlns="http://www.w3.org/2000/svg" width="1400" height="900" viewBox="0 0 1400 900">
<rect width="100%" height="100%" fill="white"/>
<style>
text { font-family: Arial, sans-serif; fill: #111827; }
.grid { stroke: #d1d5db; stroke-dasharray: 6 6; }
.axis { stroke: #111827; stroke-width: 2; }
.tick { stroke: #111827; stroke-width: 1.5; }
.series { fill: none; stroke-width: 3; }
.ideal { stroke: #9ca3af; stroke-dasharray: 8 8; stroke-width: 2; }
.point { stroke: white; stroke-width: 1.5; }
</style>
<text x="700" y="50" text-anchor="middle" font-size="30" font-weight="600">Speedup por cantidad de hilos</text>
<line class="grid" x1="120" y1="790" x2="1080" y2="790"/>
<line class="tick" x1="112" y1="790" x2="120" y2="790"/>
<text x="102" y="796" text-anchor="end" font-size="20">0</text>
<line class="grid" x1="120" y1="703.75" x2="1080" y2="703.75"/>
<line class="tick" x1="112" y1="703.75" x2="120" y2="703.75"/>
<text x="102" y="709.75" text-anchor="end" font-size="20">2</text>
<line class="grid" x1="120" y1="617.5" x2="1080" y2="617.5"/>
<line class="tick" x1="112" y1="617.5" x2="120" y2="617.5"/>
<text x="102" y="623.5" text-anchor="end" font-size="20">4</text>
<line class="grid" x1="120" y1="531.25" x2="1080" y2="531.25"/>
<line class="tick" x1="112" y1="531.25" x2="120" y2="531.25"/>
<text x="102" y="537.25" text-anchor="end" font-size="20">6</text>
<line class="grid" x1="120" y1="445" x2="1080" y2="445"/>
<line class="tick" x1="112" y1="445" x2="120" y2="445"/>
<text x="102" y="451" text-anchor="end" font-size="20">8</text>
<line class="grid" x1="120" y1="358.75" x2="1080" y2="358.75"/>
<line class="tick" x1="112" y1="358.75" x2="120" y2="358.75"/>
<text x="102" y="364.75" text-anchor="end" font-size="20">10</text>
<line class="grid" x1="120" y1="272.5" x2="1080" y2="272.5"/>
<line class="tick" x1="112" y1="272.5" x2="120" y2="272.5"/>
<text x="102" y="278.5" text-anchor="end" font-size="20">12</text>
<line class="grid" x1="120" y1="186.25" x2="1080" y2="186.25"/>
<line class="tick" x1="112" y1="186.25" x2="120" y2="186.25"/>
<text x="102" y="192.25" text-anchor="end" font-size="20">14</text>
<line class="grid" x1="120" y1="100" x2="1080" y2="100"/>
<line class="tick" x1="112" y1="100" x2="120" y2="100"/>
<text x="102" y="106" text-anchor="end" font-size="20">16</text>
<line class="grid" x1="120" y1="100" x2="120" y2="790"/>
<line class="tick" x1="120" y1="790" x2="120" y2="798"/>
<text x="120" y="826" text-anchor="middle" font-size="20">1</text>
<line class="grid" x1="360" y1="100" x2="360" y2="790"/>
<line class="tick" x1="360" y1="790" x2="360" y2="798"/>
<text x="360" y="826" text-anchor="middle" font-size="20">2</text>
<line class="grid" x1="600" y1="100" x2="600" y2="790"/>
<line class="tick" x1="600" y1="790" x2="600" y2="798"/>
<text x="600" y="826" text-anchor="middle" font-size="20">4</text>
<line class="grid" x1="840" y1="100" x2="840" y2="790"/>
<line class="tick" x1="840" y1="790" x2="840" y2="798"/>
<text x="840" y="826" text-anchor="middle" font-size="20">8</text>
<line class="grid" x1="1080" y1="100" x2="1080" y2="790"/>
<line class="tick" x1="1080" y1="790" x2="1080" y2="798"/>
<text x="1080" y="826" text-anchor="middle" font-size="20">16</text>
<line class="axis" x1="120" y1="100" x2="120" y2="790"/>
<line class="axis" x1="120" y1="790" x2="1080" y2="790"/>
<text x="600" y="870" text-anchor="middle" font-size="24">Numero de threads</text>
<text x="40" y="445" text-anchor="middle" font-size="24" transform="rotate(-90 40 445)">Speedup</text>
<line class="ideal" x1="120" y1="746.875" x2="1080" y2="100"/>
<polyline class="series" stroke="#1f77b4" points="120.00,746.88 360.00,722.46 600.00,688.49 840.00,666.07 1080.00,685.34 "/>
<circle class="point" cx="120.00" cy="746.88" r="6" fill="#1f77b4"/>
<circle class="point" cx="360.00" cy="722.46" r="6" fill="#1f77b4"/>
<circle class="point" cx="600.00" cy="688.49" r="6" fill="#1f77b4"/>
<circle class="point" cx="840.00" cy="666.07" r="6" fill="#1f77b4"/>
<circle class="point" cx="1080.00" cy="685.34" r="6" fill="#1f77b4"/>
<polyline class="series" stroke="#ff7f0e" points="120.00,746.88 360.00,737.05 600.00,726.66 840.00,722.41 1080.00,726.86 "/>
<circle class="point" cx="120.00" cy="746.88" r="6" fill="#ff7f0e"/>
<circle class="point" cx="360.00" cy="737.05" r="6" fill="#ff7f0e"/>
<circle class="point" cx="600.00" cy="726.66" r="6" fill="#ff7f0e"/>
<circle class="point" cx="840.00" cy="722.41" r="6" fill="#ff7f0e"/>
<circle class="point" cx="1080.00" cy="726.86" r="6" fill="#ff7f0e"/>
<polyline class="series" stroke="#2ca02c" points="120.00,746.88 360.00,744.90 600.00,743.28 840.00,743.16 1080.00,743.34 "/>
<circle class="point" cx="120.00" cy="746.88" r="6" fill="#2ca02c"/>
<circle class="point" cx="360.00" cy="744.90" r="6" fill="#2ca02c"/>
<circle class="point" cx="600.00" cy="743.28" r="6" fill="#2ca02c"/>
<circle class="point" cx="840.00" cy="743.16" r="6" fill="#2ca02c"/>
<circle class="point" cx="1080.00" cy="743.34" r="6" fill="#2ca02c"/>
<polyline class="series" stroke="#d62728" points="120.00,746.88 360.00,746.12 600.00,745.69 840.00,745.67 1080.00,745.57 "/>
<circle class="point" cx="120.00" cy="746.88" r="6" fill="#d62728"/>
<circle class="point" cx="360.00" cy="746.12" r="6" fill="#d62728"/>
<circle class="point" cx="600.00" cy="745.69" r="6" fill="#d62728"/>
<circle class="point" cx="840.00" cy="745.67" r="6" fill="#d62728"/>
<circle class="point" cx="1080.00" cy="745.57" r="6" fill="#d62728"/>
<polyline class="series" stroke="#9467bd" points="120.00,746.88 360.00,746.10 600.00,745.90 840.00,745.91 1080.00,746.23 "/>
<circle class="point" cx="120.00" cy="746.88" r="6" fill="#9467bd"/>
<circle class="point" cx="360.00" cy="746.10" r="6" fill="#9467bd"/>
<circle class="point" cx="600.00" cy="745.90" r="6" fill="#9467bd"/>
<circle class="point" cx="840.00" cy="745.91" r="6" fill="#9467bd"/>
<circle class="point" cx="1080.00" cy="746.23" r="6" fill="#9467bd"/>
<rect x="1100" y="90" width="240" height="210" rx="12" fill="white" stroke="#d1d5db"/>
<line x1="1120" y1="120" x2="1158" y2="120" stroke="#1f77b4" stroke-width="4"/>
<circle cx="1139" cy="120" r="5" fill="#1f77b4" stroke="white" stroke-width="1.5"/>
<text x="1172" y="127" font-size="20">Resolucion 64</text>
<line x1="1120" y1="154" x2="1158" y2="154" stroke="#ff7f0e" stroke-width="4"/>
<circle cx="1139" cy="154" r="5" fill="#ff7f0e" stroke="white" stroke-width="1.5"/>
<text x="1172" y="161" font-size="20">Resolucion 128</text>
<line x1="1120" y1="188" x2="1158" y2="188" stroke="#2ca02c" stroke-width="4"/>
<circle cx="1139" cy="188" r="5" fill="#2ca02c" stroke="white" stroke-width="1.5"/>
<text x="1172" y="195" font-size="20">Resolucion 256</text>
<line x1="1120" y1="222" x2="1158" y2="222" stroke="#d62728" stroke-width="4"/>
<circle cx="1139" cy="222" r="5" fill="#d62728" stroke="white" stroke-width="1.5"/>
<text x="1172" y="229" font-size="20">Resolucion 512</text>
<line x1="1120" y1="256" x2="1158" y2="256" stroke="#9467bd" stroke-width="4"/>
<circle cx="1139" cy="256" r="5" fill="#9467bd" stroke="white" stroke-width="1.5"/>
<text x="1172" y="263" font-size="20">Resolucion 1024</text>
</svg>
